<svg width="24" height="24" viewBox="0 0 24 24" fill="none" xmlns="http://www.w3.org/2000/svg">
<path d="M19.2807 0.21959C19.1401 0.0789865 18.9493 0 18.7505 0C18.5516 0 18.3609 0.0789865 18.2202 0.21959L15.7497 2.69009L21.3102 8.25059L23.7807 5.78159C23.8506 5.71192 23.906 5.62916 23.9438 5.53804C23.9816 5.44692 24.001 5.34924 24.001 5.25059C24.001 5.15194 23.9816 5.05426 23.9438 4.96314C23.906 4.87202 23.8506 4.78926 23.7807 4.71959L19.2807 0.21959ZM20.2497 9.31109L14.6892 3.75059L4.93921 13.5006H5.24971C5.44862 13.5006 5.63939 13.5796 5.78004 13.7203C5.92069 13.8609 5.99971 14.0517 5.99971 14.2506V15.0006H6.74971C6.94862 15.0006 7.13939 15.0796 7.28004 15.2203C7.42069 15.3609 7.49971 15.5517 7.49971 15.7506V16.5006H8.24971C8.44862 16.5006 8.63939 16.5796 8.78004 16.7203C8.92069 16.8609 8.99971 17.0517 8.99971 17.2506V18.0006H9.74971C9.94862 18.0006 10.1394 18.0796 10.28 18.2203C10.4207 18.3609 10.4997 18.5517 10.4997 18.7506V19.0611L20.2497 9.31109ZM9.04771 20.5131C9.01615 20.4292 8.99989 20.3403 8.99971 20.2506V19.5006H8.24971C8.0508 19.5006 7.86003 19.4216 7.71938 19.2809C7.57873 19.1403 7.49971 18.9495 7.49971 18.7506V18.0006H6.74971C6.5508 18.0006 6.36003 17.9216 6.21938 17.7809C6.07873 17.6403 5.99971 17.4495 5.99971 17.2506V16.5006H5.24971C5.0508 16.5006 4.86003 16.4216 4.71938 16.2809C4.57873 16.1403 4.49971 15.9495 4.49971 15.7506V15.0006H3.74971C3.66004 15.0004 3.57113 14.9842 3.48721 14.9526L3.21871 15.2196C3.14723 15.2916 3.0911 15.3773 3.05371 15.4716L0.0537091 22.9716C-0.000846891 23.1079 -0.0142021 23.2572 0.015299 23.401C0.0448002 23.5448 0.11586 23.6768 0.21967 23.7806C0.32348 23.8844 0.455474 23.9555 0.599288 23.985C0.743103 24.0145 0.892413 24.0011 1.02871 23.9466L8.52871 20.9466C8.623 20.9092 8.70873 20.8531 8.78071 20.7816L9.04771 20.5131Z" fill="#007549"/>
</svg>
