<svg width="40" height="40" viewBox="0 0 40 40" fill="none" xmlns="http://www.w3.org/2000/svg">
<path d="M16.25 16.25C16.4489 16.25 16.6397 16.329 16.7803 16.4697C16.921 16.6103 17 16.8011 17 17V26C17 26.1989 16.921 26.3897 16.7803 26.5303C16.6397 26.671 16.4489 26.75 16.25 26.75C16.0511 26.75 15.8603 26.671 15.7197 26.5303C15.579 26.3897 15.5 26.1989 15.5 26V17C15.5 16.8011 15.579 16.6103 15.7197 16.4697C15.8603 16.329 16.0511 16.25 16.25 16.25ZM20 16.25C20.1989 16.25 20.3897 16.329 20.5303 16.4697C20.671 16.6103 20.75 16.8011 20.75 17V26C20.75 26.1989 20.671 26.3897 20.5303 26.5303C20.3897 26.671 20.1989 26.75 20 26.75C19.8011 26.75 19.6103 26.671 19.4697 26.5303C19.329 26.3897 19.25 26.1989 19.25 26V17C19.25 16.8011 19.329 16.6103 19.4697 16.4697C19.6103 16.329 19.8011 16.25 20 16.25ZM24.5 17C24.5 16.8011 24.421 16.6103 24.2803 16.4697C24.1397 16.329 23.9489 16.25 23.75 16.25C23.5511 16.25 23.3603 16.329 23.2197 16.4697C23.079 16.6103 23 16.8011 23 17V26C23 26.1989 23.079 26.3897 23.2197 26.5303C23.3603 26.671 23.5511 26.75 23.75 26.75C23.9489 26.75 24.1397 26.671 24.2803 26.5303C24.421 26.3897 24.5 26.1989 24.5 26V17Z" fill="black"/>
<path fill-rule="evenodd" clip-rule="evenodd" d="M29.75 12.5C29.75 12.8978 29.592 13.2794 29.3107 13.5607C29.0294 13.842 28.6478 14 28.25 14H27.5V27.5C27.5 28.2956 27.1839 29.0587 26.6213 29.6213C26.0587 30.1839 25.2956 30.5 24.5 30.5H15.5C14.7044 30.5 13.9413 30.1839 13.3787 29.6213C12.8161 29.0587 12.5 28.2956 12.5 27.5V14H11.75C11.3522 14 10.9706 13.842 10.6893 13.5607C10.408 13.2794 10.25 12.8978 10.25 12.5V11C10.25 10.6022 10.408 10.2206 10.6893 9.93934C10.9706 9.65804 11.3522 9.5 11.75 9.5H17C17 9.10218 17.158 8.72064 17.4393 8.43934C17.7206 8.15804 18.1022 8 18.5 8H21.5C21.8978 8 22.2794 8.15804 22.5607 8.43934C22.842 8.72064 23 9.10218 23 9.5H28.25C28.6478 9.5 29.0294 9.65804 29.3107 9.93934C29.592 10.2206 29.75 10.6022 29.75 11V12.5ZM14.177 14L14 14.0885V27.5C14 27.8978 14.158 28.2794 14.4393 28.5607C14.7206 28.842 15.1022 29 15.5 29H24.5C24.8978 29 25.2794 28.842 25.5607 28.5607C25.842 28.2794 26 27.8978 26 27.5V14.0885L25.823 14H14.177ZM11.75 12.5V11H28.25V12.5H11.75Z" fill="black"/>
</svg>
